<svg width="167" height="167" viewBox="0 0 167 167" fill="none" xmlns="http://www.w3.org/2000/svg">
<g id="cookies-svgrepo-com 1" clip-path="url(#clip0_1_5)">
<path id="Vector" d="M156.442 81.008L148.503 82.5958C145.861 83.1242 143.206 81.7501 142.111 79.2878L133.607 60.1526C132.887 58.5325 131.461 57.3348 129.742 56.9046L125.311 55.7972C122.748 55.1563 120.949 52.8532 120.949 50.2106V19.506C120.949 18.0712 120.414 16.6879 119.447 15.6272L108.751 3.88959C99.1067 0.835638 88.7109 -0.526782 77.9029 0.184925C36.3633 2.92151 2.71245 36.7129 0.177765 78.2649C-2.77964 126.753 35.6688 167 83.5179 167C129.157 167 166.22 130.379 166.982 84.9218L160.147 81.5045C159.002 80.9314 157.698 80.7569 156.442 81.008Z" fill="#FFE6A1"/>
<g id="Group">
<path id="Vector_2" d="M109.432 141.086C108.925 141.086 108.425 141.057 107.921 141.048C104.757 144.597 100.164 146.845 95.0351 146.845C87.4809 146.845 81.0762 141.988 78.7288 135.233C68.396 131.144 59.0759 125.061 51.2432 117.445C50.0583 117.802 48.8276 118.051 47.5262 118.051C40.3703 118.051 34.5693 112.25 34.5693 105.095C34.5693 102.595 35.3104 100.283 36.5361 98.3033C36.4484 98.1464 36.3548 97.9941 36.2677 97.8366C27.28 97.2273 20.1731 89.7628 20.1731 80.6206C20.1731 75.2325 22.6409 70.4231 26.5064 67.2547C26.1401 64.0807 25.9316 60.8588 25.9316 57.586C25.9316 41.1636 30.6918 25.8619 38.8797 12.9481C15.5304 27.7523 0.0179443 53.8066 0.0179443 83.5C0.0179443 129.616 37.4021 167 83.5179 167C113.211 167 139.265 151.488 154.07 128.138C141.156 136.326 125.854 141.086 109.432 141.086Z" fill="#DDBA81"/>
<path id="Vector_3" d="M64.8025 69.1034C68.778 69.1034 72.0008 65.8807 72.0008 61.9052C72.0008 57.9297 68.778 54.7069 64.8025 54.7069C60.827 54.7069 57.6042 57.9297 57.6042 61.9052C57.6042 65.8807 60.827 69.1034 64.8025 69.1034Z" fill="#DDBA81"/>
<path id="Vector_4" d="M141.104 116.612C145.08 116.612 148.303 113.389 148.303 109.414C148.303 105.438 145.08 102.215 141.104 102.215C137.129 102.215 133.906 105.438 133.906 109.414C133.906 113.389 137.129 116.612 141.104 116.612Z" fill="#DDBA81"/>
<path id="Vector_5" d="M75.5998 116.612C78.3826 116.612 80.6385 114.356 80.6385 111.573C80.6385 108.791 78.3826 106.535 75.5998 106.535C72.817 106.535 70.5611 108.791 70.5611 111.573C70.5611 114.356 72.817 116.612 75.5998 116.612Z" fill="#DDBA81"/>
<path id="Vector_6" d="M114.471 70.5428C117.253 70.5428 119.509 68.2869 119.509 65.5041C119.509 62.7213 117.253 60.4654 114.471 60.4654C111.688 60.4654 109.432 62.7213 109.432 65.5041C109.432 68.2869 111.688 70.5428 114.471 70.5428Z" fill="#DDBA81"/>
<path id="Vector_7" d="M94.3156 25.9137C97.0984 25.9137 99.3543 23.6578 99.3543 20.875C99.3543 18.0922 97.0984 15.8363 94.3156 15.8363C91.5328 15.8363 89.2769 18.0922 89.2769 20.875C89.2769 23.6578 91.5328 25.9137 94.3156 25.9137Z" fill="#DDBA81"/>
</g>
<g id="Group_2">
<path id="Vector_8" d="M79.3279 74.167L75.9994 79.7148C74.0097 83.0307 75.7893 87.3263 79.5406 88.2641L89.4484 90.741C92.534 91.5124 95.6607 89.6366 96.4317 86.551L97.5652 82.0173C97.7945 81.1001 97.7945 80.1411 97.5652 79.2239L96.3668 74.4302C95.6215 71.448 92.6651 69.5771 89.651 70.1798L83.1367 71.4826C81.5456 71.8012 80.1629 72.7758 79.3279 74.167Z" fill="#B97850"/>
<path id="Vector_9" d="M95.9474 109.813L92.4759 115.599C90.7501 118.475 91.8383 122.212 94.8384 123.712L105.89 129.238C109.185 130.886 113.158 129.058 114.052 125.484L115.19 120.931L116.521 115.608C117.349 112.295 115.129 108.994 111.748 108.511L101.699 107.075C99.4061 106.747 97.1392 107.827 95.9474 109.813Z" fill="#B97850"/>
<path id="Vector_10" d="M35.3613 75.4625L31.1246 82.5238C29.7652 84.7897 30.1223 87.69 31.9906 89.5587L38.6582 96.2266C41.0853 98.6536 45.0828 98.4322 47.2271 95.752L52.9433 88.6066C54.0659 87.2034 54.4691 85.3563 54.033 83.6125L52.7293 78.3977C52.1895 76.2385 50.4542 74.5841 48.2721 74.1474L41.4284 72.7787C39.0421 72.3012 36.6135 73.3756 35.3613 75.4625Z" fill="#B97850"/>
<path id="Vector_11" d="M58.8059 28.7093L55.5389 34.1544C53.6435 37.3134 55.1609 41.4154 58.6558 42.5804L65.7452 44.9436C67.8144 45.6331 70.0957 45.0946 71.6381 43.5524L75.454 39.7366C76.8843 38.3063 77.4593 36.2302 76.9687 34.268L75.9707 30.2759C75.3297 27.7119 73.0263 25.9134 70.3837 25.9134H63.7435C61.7212 25.9137 59.8467 26.9751 58.8059 28.7093Z" fill="#B97850"/>
<path id="Vector_12" d="M128.354 73.2158L125.021 76.549C122.772 78.7976 122.772 82.4439 125.021 84.6928L126.652 86.324C128.405 88.0769 131.082 88.5113 133.299 87.4027L142.731 82.6869C145.145 81.4797 146.397 78.7581 145.743 76.1396L145.315 74.4308C144.57 71.4486 141.614 69.5777 138.6 70.1805L131.297 71.6411C130.182 71.8635 129.158 72.4118 128.354 73.2158Z" fill="#B97850"/>
<path id="Vector_13" d="M106.942 32.1136L103.117 37.213C101.712 39.0858 101.582 41.6235 102.786 43.631L106.325 49.5286C108.016 52.348 111.721 53.181 114.457 51.3574L121.643 46.5669C124.394 44.7332 125.039 40.9649 123.055 38.3203L119.149 33.112C118.446 32.1749 117.474 31.4743 116.363 31.1041L113.37 30.106C111.018 29.3216 108.429 30.1305 106.942 32.1136Z" fill="#B97850"/>
<path id="Vector_14" d="M57.6636 123.092L53.9035 127.793C51.4895 130.81 52.6738 135.301 56.2617 136.737L61.3125 138.757C62.6857 139.306 64.2171 139.306 65.5899 138.757L71.2581 136.49C74.6542 135.131 75.94 130.992 73.9112 127.948L72.9376 126.488C72.3815 125.654 71.6179 124.98 70.7216 124.532L64.7363 121.539C62.3067 120.325 59.3597 120.972 57.6636 123.092Z" fill="#B97850"/>
</g>
<g id="Group_3">
<path id="Vector_15" d="M45.8037 95.5426L39.1361 88.875C37.2678 87.0067 36.9103 84.106 38.2701 81.8404L42.5067 74.7791C42.8681 74.177 43.3456 73.6881 43.8737 73.268L41.4287 72.7794C39.0425 72.3022 36.6135 73.3766 35.3613 75.4631L31.1246 82.5244C29.7652 84.7903 30.1223 87.6907 31.9906 89.5593L38.6582 96.2269C40.9078 98.4765 44.4885 98.4224 46.7098 96.2722C46.3914 96.0612 46.0848 95.8241 45.8037 95.5426Z" fill="#A5694B"/>
<path id="Vector_16" d="M71.5125 42.8936L64.4232 40.5308C60.9286 39.3657 59.4106 35.2637 61.3063 32.1048L64.5732 26.6597C64.7393 26.3824 64.9588 26.1544 65.1646 25.9137H63.7431C61.7205 25.9137 59.846 26.9751 58.8052 28.7096L55.5383 34.1544C53.6426 37.3134 55.1599 41.4153 58.6552 42.5804L65.7445 44.9435C67.8138 45.6331 70.095 45.0946 71.6375 43.5524L72.174 43.0159C71.9535 42.9702 71.7298 42.966 71.5125 42.8936Z" fill="#A5694B"/>
<path id="Vector_17" d="M94.9121 89.0854L85.0043 86.6084C81.2527 85.6703 79.4731 81.375 81.4631 78.0591L84.7917 72.5113C85.188 71.8508 85.7144 71.2933 86.3214 70.8462L83.1367 71.4832C81.5459 71.8012 80.1626 72.7761 79.328 74.1676L75.9994 79.7154C74.0097 83.0313 75.7893 87.327 79.5406 88.2647L89.4484 90.7417C91.5356 91.2635 93.6231 90.5551 95.0057 89.0994C94.9744 89.0916 94.9434 89.0932 94.9121 89.0854Z" fill="#A5694B"/>
<path id="Vector_18" d="M111.704 49.0305L108.165 43.133C106.961 41.1254 107.091 38.5884 108.496 36.7149L112.321 31.6158C112.739 31.0571 113.259 30.6194 113.823 30.2563L113.369 30.1053C111.018 29.3215 108.428 30.1304 106.941 32.1132L103.117 37.2123C101.712 39.0855 101.581 41.6228 102.786 43.6304L106.325 49.5279C108.011 52.3379 111.695 53.1712 114.428 51.3717C113.333 50.9161 112.364 50.13 111.704 49.0305Z" fill="#A5694B"/>
<path id="Vector_19" d="M131.273 85.9404C129.024 83.6915 129.024 80.0455 131.273 77.7966L134.607 74.4634C135.41 73.6597 136.434 73.1114 137.549 72.8887L143.696 71.6593C142.381 70.4094 140.503 69.7992 138.599 70.1801L131.297 71.6407C130.182 71.8638 129.158 72.4118 128.354 73.2155L125.021 76.5486C122.772 78.7976 122.772 82.4435 125.021 84.6925L126.652 86.3237C128.296 87.9679 130.742 88.3988 132.87 87.538L131.273 85.9404Z" fill="#A5694B"/>
<path id="Vector_20" d="M101.972 123.229C98.972 121.729 97.8835 117.992 99.6096 115.116L103.081 109.331C103.536 108.572 104.18 107.997 104.89 107.531L101.7 107.075C99.4061 106.748 97.1395 107.827 95.9477 109.813L92.4763 115.599C90.7505 118.475 91.8386 122.212 94.8387 123.712L105.89 129.238C108.093 130.34 110.578 129.864 112.264 128.376L101.972 123.229Z" fill="#A5694B"/>
<path id="Vector_21" d="M67.0711 137.795L62.0203 135.774C58.4327 134.339 57.2484 129.847 59.6621 126.83L63.4222 122.13C63.6609 121.831 63.929 121.57 64.2122 121.332C61.8944 120.444 59.2407 121.121 57.6636 123.092L53.9035 127.792C51.4895 130.81 52.6738 135.301 56.2617 136.737L61.3125 138.757C62.6857 139.306 64.2171 139.306 65.5899 138.757L67.6047 137.951C67.4263 137.899 67.2446 137.864 67.0711 137.795Z" fill="#A5694B"/>
</g>
<path id="Vector_22" d="M23.0489 118.049C22.6174 118.049 22.1771 117.951 21.7642 117.745C20.3414 117.034 19.7647 115.305 20.4764 113.882L23.3559 108.123C24.0676 106.701 25.7924 106.13 27.219 106.836C28.6418 107.547 29.2185 109.276 28.5068 110.699L25.6273 116.457C25.1227 117.467 24.1064 118.049 23.0489 118.049Z" fill="#C98850"/>
<path id="Vector_23" d="M74.8799 155.483H72.0005C70.4104 155.483 69.121 154.195 69.121 152.603C69.121 151.012 70.4104 149.724 72.0005 149.724H74.8799C76.47 149.724 77.7594 151.011 77.7594 152.603C77.7594 154.195 76.47 155.483 74.8799 155.483Z" fill="#925F4A"/>
<path id="Vector_24" d="M63.3599 100.776C62.9283 100.776 62.488 100.678 62.0751 100.472C60.6523 99.7603 60.0756 98.0313 60.7874 96.6088L63.6668 90.8503C64.3769 89.4305 66.102 88.8567 67.53 89.5626C68.9527 90.2743 69.5294 92.003 68.8177 93.4257L65.9383 99.1843C65.4337 100.194 64.417 100.776 63.3599 100.776Z" fill="#C98850"/>
<g id="Group_4">
<path id="Vector_25" d="M46.0842 54.7068C45.6527 54.7068 45.2123 54.6087 44.7994 54.4032L39.0408 51.5237C37.6181 50.812 37.0414 49.0833 37.7531 47.6606C38.4632 46.2407 40.1896 45.6641 41.6163 46.3728L47.3748 49.252C48.7976 49.9637 49.3743 51.6924 48.6626 53.1151C48.158 54.1246 47.1413 54.7068 46.0842 54.7068Z" fill="#925F4A"/>
<path id="Vector_26" d="M80.6388 14.3963H74.8803C73.2902 14.3963 72.0008 13.1085 72.0008 11.5168C72.0008 9.92509 73.2902 8.63736 74.8803 8.63736H80.6388C82.2289 8.63736 83.5183 9.92509 83.5183 11.5168C83.5183 13.1085 82.2289 14.3963 80.6388 14.3963Z" fill="#925F4A"/>
</g>
<path id="Vector_27" d="M92.1589 57.586C91.1014 57.586 90.0851 57.0041 89.5805 55.9946L86.701 50.236C85.9893 48.8132 86.566 47.0839 87.9888 46.3728C89.4145 45.6641 91.1422 46.2407 91.8519 47.6606L94.7314 53.4191C95.4431 54.8419 94.8664 56.5712 93.4437 57.2823C93.0301 57.4878 92.5904 57.586 92.1589 57.586Z" fill="#C98850"/>
<g id="Group_5">
<path id="Vector_28" d="M13.1402 71.6851C12.753 71.4943 12.4017 71.2115 12.1215 70.8445C11.1593 69.5777 11.4069 67.7717 12.6741 66.8098L17.8021 62.9166C19.068 61.9541 20.8727 62.2039 21.8369 63.4691C22.7991 64.736 22.5515 66.542 21.2844 67.5039L16.1566 71.3967C15.2574 72.0791 14.0884 72.1521 13.1402 71.6851Z" fill="#925F4A"/>
<path id="Vector_29" d="M120.949 103.655C120.212 103.655 119.475 103.374 118.913 102.812L113.155 97.0531C112.03 95.9284 112.03 94.1061 113.155 92.9815C114.28 91.8568 116.102 91.8568 117.227 92.9815L122.985 98.74C124.11 99.8647 124.11 101.687 122.985 102.812C122.422 103.374 121.686 103.655 120.949 103.655Z" fill="#925F4A"/>
</g>
<path id="Vector_30" d="M126.708 132.448C125.971 132.448 125.234 132.167 124.672 131.605C123.547 130.48 123.547 128.658 124.672 127.533L127.551 124.654C128.676 123.529 130.498 123.529 131.623 124.654C132.748 125.778 132.748 127.601 131.623 128.725L128.744 131.605C128.181 132.167 127.444 132.448 126.708 132.448Z" fill="#C98850"/>
<g id="crumbs">
<path id="Vector_31" d="M135 2.87945V10.1439C135 12.1812 137.057 13.574 138.949 12.8173L147.587 9.36211C148.68 8.92472 149.397 7.86596 149.397 6.68881V2.87945C149.397 1.28936 148.108 0 146.517 0H137.879C136.29 0 135 1.28936 135 2.87945Z" fill="#FFE6A1"/>
<path id="Vector_32" d="M141.156 25.5791L139.319 38.4413C138.887 41.4669 140.894 44.3033 143.89 44.9025L149.163 45.957C151.452 46.4149 153.79 45.4462 155.084 43.5045L157.067 40.5298C158.095 38.9886 158.318 37.0476 157.668 35.3137L151.661 19.295C150.914 17.3028 148.358 16.7493 146.853 18.2539L142.785 22.3216C141.904 23.2026 141.333 24.3458 141.156 25.5791Z" fill="#FFE6A1"/>
<path id="Vector_33" d="M144.708 7.05836C142.816 7.81475 140.759 6.422 140.759 4.38505V0H137.879C136.289 0 135 1.28936 135 2.87945V10.1439C135 12.1812 137.057 13.574 138.949 12.8173L147.587 9.36211C148.68 8.92472 149.397 7.86629 149.397 6.68881V5.18287L144.708 7.05836Z" fill="#FFD796"/>
<path id="crumb 1" d="M156.591 54.1579L154.889 57.5618C154.484 58.3724 154.484 59.3264 154.889 60.137L155.666 61.6909C156.44 63.2398 158.397 63.7598 159.838 62.7992L164.48 59.7048C165.281 59.1705 165.762 58.2716 165.762 57.3091V54.2068C165.762 52.2417 163.837 50.8538 161.972 51.4755L158.255 52.7143C157.531 52.9553 156.932 53.4746 156.591 54.1579Z" fill="#FFD796"/>
<path id="Vector_34" d="M155.331 40.429L150.057 39.3745C147.06 38.775 145.054 35.9386 145.486 32.9133L147.323 20.0514C147.487 18.9043 148.022 17.8566 148.801 17.004C148.019 16.9645 147.217 17.216 146.593 17.8396L142.524 21.9077C141.643 22.7886 141.072 23.9319 140.896 25.1651L139.058 38.0271C138.626 41.053 140.633 43.889 143.63 44.4882L148.903 45.5427C151.191 46 153.529 45.0319 154.824 43.0902L156.559 40.488C156.151 40.4962 155.742 40.5115 155.331 40.429Z" fill="#FFD796"/>
</g>
</g>
<defs>
<clipPath id="clip0_1_5">
<rect width="167" height="167" fill="white"/>
</clipPath>
</defs>
</svg>
